<svg version="1.1" id="Layer_1" xmlns="http://www.w3.org/2000/svg" xmlns:xlink="http://www.w3.org/1999/xlink" x="0px" y="0px"
	 width="100%" viewBox="0 0 1254 1254" enable-background="new 0 0 1254 1254" xml:space="preserve">
<path fill="#FFFFFF" opacity="1.000000" stroke="none" 
	d="
M741.065430,1142.196045 
	C747.303528,1142.756104 753.554688,1143.653564 759.567261,1142.823242 
	C769.392151,1141.466431 779.104431,1139.167725 788.779907,1136.905762 
	C794.380676,1135.596313 799.917358,1133.849609 805.304260,1131.824341 
	C815.048279,1128.161621 824.645508,1124.110229 834.329163,1120.284790 
	C839.818726,1118.116333 845.580627,1116.516235 850.824890,1113.875488 
	C859.314941,1109.600464 867.427307,1104.582153 875.801270,1100.067139 
	C881.131714,1097.192993 886.798340,1094.923828 892.034790,1091.899536 
	C896.943298,1089.064819 901.448364,1085.539185 906.196716,1082.417480 
	C911.058716,1079.221069 915.927246,1076.023071 920.924744,1073.047119 
	C927.858948,1068.917725 934.580383,1064.646851 940.691833,1059.215088 
	C947.048523,1053.565430 954.602966,1049.285278 961.200928,1043.878052 
	C966.294617,1039.703857 970.701050,1034.694580 975.448730,1030.093384 
	C978.610657,1027.028931 981.910156,1024.103638 985.015015,1020.983765 
	C989.846008,1016.129211 994.591187,1011.187988 999.323181,1006.236206 
	C1005.839355,999.417236 1012.357849,992.599121 1018.778931,985.690979 
	C1021.960083,982.268433 1025.038574,978.736450 1027.966431,975.095337 
	C1035.295654,965.980164 1042.834229,957.006775 1049.672119,947.531494 
	C1055.114624,939.989868 1059.577637,931.747009 1064.609619,923.901428 
	C1067.418945,919.521301 1070.640503,915.404297 1073.418457,911.005920 
	C1075.731689,907.343140 1077.748657,903.484558 1079.755737,899.639038 
	C1083.894897,891.708435 1088.054443,883.784790 1091.987427,875.751404 
	C1095.150513,869.290833 1098.106323,862.721924 1100.948486,856.112671 
	C1104.735718,847.305725 1108.468384,838.469360 1111.941650,829.535583 
	C1113.964600,824.332092 1115.229492,818.836060 1117.203735,813.610840 
	C1119.918701,806.424988 1123.248169,799.464050 1125.787476,792.221985 
	C1127.107910,788.456116 1127.197388,784.273010 1128.016846,780.314453 
	C1130.100830,770.248535 1132.853638,760.281860 1134.258301,750.126038 
	C1135.562500,740.696228 1135.921265,731.068970 1135.830933,721.536804 
	C1135.772217,715.331909 1130.563843,711.297729 1124.186157,711.003052 
	C1117.187988,710.679626 1110.532593,711.537048 1104.670166,715.948853 
	C1103.512085,716.820435 1101.578735,716.610168 1100.041748,717.038391 
	C1092.342163,719.183411 1084.773193,722.201660 1076.931274,723.319458 
	C1068.957397,724.455933 1060.592529,724.660461 1052.631592,723.571594 
	C1044.461792,722.454346 1036.399170,719.743347 1028.627075,716.829834 
	C1023.873291,715.047791 1019.757446,711.566711 1015.348328,708.859680 
	C1014.805115,708.526184 1014.225098,708.250488 1013.653320,707.965881 
	C1007.530457,704.917542 1002.984741,700.155212 998.930603,694.763855 
	C997.234680,692.508484 994.981445,690.680908 993.087463,688.564087 
	C987.058167,681.825439 983.614258,673.748169 980.963318,665.227112 
	C979.871643,661.718140 977.708740,658.442444 977.157593,654.886353 
	C976.034424,647.639282 975.066650,640.267700 975.143127,632.958984 
	C975.256592,622.125244 975.912842,611.252136 977.180115,600.494934 
	C977.797913,595.250671 980.042419,590.118225 982.059753,585.141479 
	C984.030029,580.280579 986.387207,575.527405 989.063965,571.017456 
	C991.233704,567.361816 994.066040,564.086853 996.720947,560.735291 
	C999.464294,557.271912 1002.221497,553.802917 1005.216370,550.561584 
	C1007.109680,548.512390 1009.264465,546.580505 1011.620728,545.104858 
	C1021.803040,538.727966 1031.853027,532.666382 1043.953979,529.507141 
	C1053.366455,527.049744 1062.572510,525.282532 1071.904907,526.306030 
	C1077.820557,526.954834 1084.099487,525.534546 1090.001709,529.645142 
	C1094.187744,532.560425 1100.353149,532.610962 1105.609741,534.033264 
	C1106.531128,534.282593 1107.340454,534.972778 1108.180542,535.493164 
	C1114.330078,539.302124 1121.146362,540.103455 1127.891357,538.434082 
	C1134.496704,536.799255 1136.087891,530.567322 1135.799438,525.028320 
	C1135.198120,513.487305 1133.830444,501.950409 1132.098633,490.514679 
	C1130.533936,480.182648 1128.521118,469.865845 1125.828247,459.776581 
	C1124.150635,453.490570 1120.680176,447.701569 1118.341187,441.564941 
	C1117.320312,438.886749 1117.492310,435.754913 1116.477539,433.073120 
	C1112.701782,423.094055 1108.688354,413.204224 1104.703735,403.305176 
	C1102.372681,397.514496 1100.235718,391.616638 1097.465210,386.038239 
	C1092.516846,376.074463 1087.142456,366.322571 1081.971436,356.468933 
	C1079.278564,351.337646 1076.979370,345.963104 1073.892700,341.084106 
	C1069.705811,334.465912 1064.866455,328.263947 1060.436768,321.794525 
	C1057.353271,317.291321 1054.575562,312.578979 1051.497925,308.071564 
	C1048.958130,304.351654 1046.179932,300.794250 1043.505127,297.166534 
	C1040.003052,292.416779 1036.648438,287.547699 1032.944946,282.960449 
	C1030.289551,279.671478 1027.129639,276.793915 1024.264038,273.669403 
	C1022.268860,271.494141 1020.354004,269.241974 1018.468079,266.970428 
	C1013.816772,261.367859 1009.460510,255.493973 1004.503540,250.178741 
	C999.215759,244.508667 993.363831,239.365814 987.778625,233.971664 
	C983.865051,230.191986 980.181274,226.147888 976.051880,222.623734 
	C966.502258,214.473648 956.911255,206.353912 947.018250,198.630173 
	C939.041077,192.402145 930.752991,186.536377 922.310486,180.951950 
	C915.738708,176.604980 908.637146,173.067444 901.923950,168.922623 
	C897.746643,166.343567 893.934326,163.178009 889.797058,160.527115 
	C887.948059,159.342331 885.660156,158.865829 883.646057,157.910706 
	C878.170837,155.314255 872.696594,152.710403 867.292969,149.969498 
	C858.259949,145.387619 849.467712,140.277771 840.223450,136.181686 
	C832.504028,132.761246 824.280640,130.479568 816.283630,127.684219 
	C807.529724,124.624275 798.877625,121.221130 789.993774,118.603310 
	C783.978760,116.830849 777.411560,116.834419 771.497253,114.839897 
	C761.245117,111.382507 750.747925,110.366547 740.669861,113.267982 
	C730.646729,116.153618 721.849182,121.449944 716.695496,131.914337 
	C713.598755,138.202087 712.034119,144.312790 712.023743,151.026810 
	C711.971985,184.692245 712.050293,218.357956 711.954834,252.023209 
	C711.937134,258.273590 712.513367,264.878571 710.757324,270.698975 
	C706.889771,283.518494 704.227478,297.122101 692.577026,306.251190 
	C688.452820,309.482849 685.866089,314.633484 681.859009,318.070496 
	C678.114075,321.282715 673.580139,323.724365 669.093018,325.879547 
	C664.679932,327.999237 659.989441,329.737274 655.240173,330.914642 
	C648.361938,332.619934 641.309143,334.824036 634.352478,334.751038 
	C621.272766,334.613861 608.034729,333.960876 595.203613,331.637878 
	C587.609375,330.263062 580.403198,325.740662 573.515381,321.777191 
	C567.773376,318.473083 561.990845,314.609650 557.588501,309.757935 
	C551.318115,302.847534 545.432861,295.625458 541.817871,286.478485 
	C537.443665,275.410217 535.580505,264.219971 536.096497,252.614120 
	C536.736450,238.220306 540.686768,225.229950 550.308960,213.557541 
	C557.539856,204.786011 565.606018,199.164169 576.446594,197.004349 
	C580.068420,196.282745 583.968384,194.487823 587.296814,195.215729 
	C598.285156,197.618744 609.218567,200.467041 615.329956,211.684021 
	C621.247253,222.544769 630.174744,229.461075 642.987793,229.954010 
	C654.499268,230.396896 667.427612,225.014587 670.958374,211.928329 
	C672.370300,206.695099 673.846680,201.256897 673.869751,195.905853 
	C674.088440,145.241867 673.782288,94.574532 674.248474,43.913887 
	C674.314026,36.790207 677.077637,29.477324 681.931946,23.491110 
	C684.162354,20.740595 685.994629,17.669188 688.053223,14.775864 
	C688.517273,14.123678 689.073608,13.425872 689.754211,13.055462 
	C702.395569,6.175443 715.647156,3.225293 730.100708,5.860173 
	C737.318420,7.175956 744.774902,7.122078 752.075684,8.059372 
	C758.302795,8.858820 764.464844,10.172143 770.649292,11.293496 
	C773.509827,11.812172 776.358093,12.400806 779.206848,12.982491 
	C787.393311,14.654079 795.650452,16.050714 803.737366,18.113991 
	C809.577148,19.603930 815.150146,22.108961 820.912109,23.941374 
	C828.661377,26.405781 836.497620,28.595638 844.259338,31.022186 
	C850.338318,32.922680 856.506531,34.656555 862.363281,37.112541 
	C867.209290,39.144676 871.519836,42.431602 876.324646,44.590820 
	C880.511353,46.472256 885.200195,47.228336 889.408081,49.072746 
	C894.706238,51.395123 899.688965,54.425991 904.903503,56.953655 
	C910.678894,59.753201 916.650391,62.156288 922.369751,65.060486 
	C926.641602,67.229698 930.659424,69.902580 934.768860,72.386780 
	C936.720337,73.566490 938.563354,74.934906 940.557007,76.033600 
	C945.476685,78.744705 950.634949,81.065582 955.365417,84.066406 
	C961.738892,88.109459 967.773804,92.682968 974.006470,96.952354 
	C978.038269,99.714127 982.288940,102.169792 986.213379,105.071228 
	C990.480896,108.226295 994.426147,111.813217 998.616272,115.077904 
	C1005.081482,120.115112 1011.688171,124.971451 1018.130493,130.037216 
	C1021.541504,132.719345 1024.746216,135.665619 1028.019287,138.520981 
	C1033.382690,143.199722 1038.844116,147.775360 1044.034302,152.639725 
	C1047.298340,155.698898 1050.043823,159.304321 1053.209106,162.478165 
	C1055.520142,164.795486 1058.307617,166.642792 1060.581177,168.991547 
	C1065.661255,174.239883 1070.483276,179.737289 1075.541138,185.007874 
	C1080.467407,190.141434 1085.689331,194.995392 1090.528076,200.207397 
	C1093.877075,203.814682 1096.788330,207.827560 1099.909058,211.647812 
	C1102.604614,214.947449 1105.382324,218.181885 1108.010254,221.534058 
	C1111.305664,225.737671 1114.609131,229.944519 1117.690796,234.304367 
	C1125.466553,245.305450 1133.259399,256.299408 1140.766113,267.483734 
	C1144.814209,273.515045 1148.397339,279.869537 1151.995361,286.189178 
	C1157.158081,295.257324 1162.230713,304.379547 1167.171753,313.570129 
	C1170.329468,319.443604 1172.465942,326.002319 1176.340454,331.321259 
	C1181.778076,338.786011 1184.093872,347.518677 1188.203003,355.451782 
	C1191.685425,362.174835 1193.045410,369.601837 1197.175049,376.222961 
	C1201.199219,382.675018 1202.348511,390.915985 1204.784424,398.363586 
	C1208.657471,410.205841 1212.939453,421.931946 1216.314941,433.913818 
	C1219.096069,443.785309 1219.942139,454.262482 1223.321167,463.882721 
	C1225.422241,469.864227 1226.610107,475.606049 1227.104736,481.800323 
	C1227.954468,492.441711 1232.407349,502.407318 1232.255737,513.419556 
	C1232.110352,523.979919 1234.870361,534.578796 1234.742798,545.141357 
	C1234.627930,554.667358 1231.054321,562.918030 1222.665161,569.498840 
	C1214.852295,575.627563 1206.612427,577.826416 1197.384277,577.941284 
	C1180.720703,578.148743 1164.052368,578.074402 1147.387085,577.954163 
	C1142.466309,577.918640 1137.522461,576.846436 1132.637817,577.120056 
	C1126.155029,577.483276 1119.686523,578.078003 1113.473389,575.930786 
	C1108.182861,574.102417 1103.152100,571.534668 1097.906128,569.560730 
	C1093.429810,567.876404 1088.903076,566.049377 1084.232788,565.223206 
	C1077.520020,564.035889 1070.572754,562.695984 1063.879272,563.256104 
	C1055.662231,563.943787 1047.235352,565.633179 1040.517700,571.210266 
	C1035.201538,575.623779 1029.052856,579.622559 1025.299072,585.174683 
	C1021.021973,591.500916 1017.029358,598.295471 1015.617126,606.435608 
	C1014.206055,614.568604 1010.714172,622.530518 1012.151917,630.858643 
	C1013.750671,640.119568 1015.388672,649.673706 1019.107361,658.183472 
	C1022.765015,666.553223 1028.496338,673.799377 1037.435425,678.601379 
	C1043.306152,681.754883 1048.874023,683.812012 1055.255005,685.471313 
	C1060.593384,686.859436 1065.892334,687.652771 1070.732178,686.717896 
	C1079.291382,685.064575 1087.518677,681.687622 1095.877441,679.008728 
	C1096.640625,678.764099 1097.335571,678.314270 1098.086426,678.022339 
	C1116.968140,670.680664 1136.733154,671.904053 1156.386108,672.000732 
	C1165.210205,672.044128 1174.037231,671.871704 1182.858398,672.037354 
	C1191.430664,672.198364 1200.045410,672.226135 1208.548218,673.160950 
	C1213.887939,673.747925 1218.726440,676.284790 1222.434448,680.725952 
	C1224.490234,683.188354 1227.413330,684.918457 1229.885498,687.048218 
	C1230.398193,687.489868 1230.801758,688.194092 1230.992554,688.853394 
	C1233.912109,698.934998 1237.149780,708.796387 1233.400879,719.654724 
	C1231.690796,724.607666 1232.388062,730.393066 1232.001221,735.801392 
	C1231.661377,740.551575 1232.724976,746.045288 1230.678589,749.882568 
	C1227.448975,755.937927 1228.260132,762.257446 1226.875000,768.355896 
	C1224.958130,776.795532 1223.085327,785.248169 1220.970825,793.639160 
	C1218.427612,803.731873 1215.955688,813.859741 1212.891602,823.799316 
	C1209.596313,834.489014 1205.967773,845.101746 1201.904785,855.521973 
	C1197.308228,867.310364 1192.045044,878.838196 1187.114502,890.497375 
	C1184.494751,896.692017 1182.327148,903.107239 1179.308228,909.096619 
	C1175.033936,917.576233 1170.134521,925.739685 1165.567749,934.074036 
	C1164.665161,935.721375 1164.177246,937.593689 1163.296021,939.255188 
	C1159.143677,947.083435 1155.225586,955.058655 1150.642090,962.629211 
	C1145.615112,970.932129 1139.952881,978.850464 1134.564941,986.934753 
	C1130.631348,992.836914 1126.897339,998.885803 1122.707397,1004.600342 
	C1117.063232,1012.298645 1111.050171,1019.725891 1105.226440,1027.293457 
	C1100.941162,1032.862061 1096.897827,1038.630615 1092.377686,1043.999512 
	C1089.590820,1047.309692 1085.899048,1049.844971 1082.987915,1053.066406 
	C1077.514771,1059.122803 1072.346436,1065.453857 1066.979858,1071.608154 
	C1065.046143,1073.825928 1063.015503,1075.984741 1060.837280,1077.958618 
	C1056.623901,1081.776855 1052.252441,1085.420044 1047.985962,1089.180542 
	C1040.392578,1095.873413 1032.783203,1102.549438 1025.273682,1109.335571 
	C1021.992493,1112.300781 1019.100708,1115.707031 1015.743225,1118.574951 
	C1011.690857,1122.036621 1007.387512,1125.214966 1003.089478,1128.375366 
	C999.036682,1131.355469 994.867676,1134.179077 990.718018,1137.025269 
	C984.191406,1141.501587 977.431458,1145.668457 971.151367,1150.465332 
	C964.174133,1155.794556 956.881653,1160.327515 948.965515,1164.234741 
	C940.165344,1168.578247 932.226990,1174.635864 923.714783,1179.607056 
	C918.893860,1182.422485 913.627808,1184.465088 908.646973,1187.020752 
	C903.667419,1189.575806 898.895935,1192.552002 893.848206,1194.954712 
	C887.103027,1198.165405 880.199585,1201.048462 873.326843,1203.984985 
	C866.146790,1207.052979 858.971252,1210.142090 851.698669,1212.978271 
	C847.692871,1214.540405 843.457886,1215.503296 839.384888,1216.906738 
	C827.597717,1220.968140 816.032288,1225.659912 803.702332,1228.070190 
	C795.241089,1229.723999 786.464722,1230.975220 778.631531,1234.297974 
	C770.513672,1237.741211 761.806641,1236.716919 754.020142,1239.328003 
	C739.775879,1244.104126 725.316101,1243.453735 710.802734,1244.084106 
	C702.773499,1244.432983 695.889709,1240.793457 690.202759,1236.650391 
	C683.351807,1231.659424 678.187988,1224.560547 675.612732,1215.571411 
	C674.326294,1211.081055 674.077332,1206.890137 674.067749,1202.568848 
	C673.960510,1154.237427 673.981140,1105.905640 674.013306,1057.573975 
	C674.021362,1045.483398 667.936829,1036.512451 658.423584,1030.377930 
	C646.863586,1022.923523 625.632446,1030.051758 618.864929,1041.972534 
	C614.094238,1050.375977 607.612976,1056.804810 597.233459,1059.373657 
	C590.443726,1061.054077 584.065002,1062.957886 577.304932,1060.930664 
	C571.020142,1059.046143 565.126343,1056.664673 559.532471,1052.586914 
	C552.360901,1047.359131 547.026855,1041.119263 543.263733,1033.465332 
	C539.092834,1024.981934 536.557007,1015.986633 536.960083,1006.316162 
	C537.340759,997.183044 536.624146,988.126099 539.785583,979.092407 
	C543.984070,967.095337 549.714355,956.364868 559.361084,947.986389 
	C564.116882,943.855652 568.654419,939.160278 574.098938,936.213684 
	C581.203552,932.368713 589.064087,929.882812 596.681213,927.030640 
	C609.245056,922.326416 622.388977,924.231567 635.316895,924.069946 
	C645.647034,923.940735 655.280151,927.665039 664.739807,931.190491 
	C670.837036,933.462769 676.831726,936.735413 681.934387,940.751404 
	C687.257996,944.941345 691.590088,950.443298 696.115417,955.583191 
	C703.237915,963.672729 706.542542,973.428406 709.388794,983.738342 
	C710.898376,989.206421 711.986145,994.424377 711.989563,999.970032 
	C712.010498,1033.302246 711.894836,1066.635010 712.090820,1099.966064 
	C712.129028,1106.457520 712.256958,1113.317627 714.339233,1119.314819 
	C716.105103,1124.400757 720.586487,1128.622925 724.168457,1132.978760 
	C728.474609,1138.215210 734.890320,1139.740601 741.065430,1142.196045 
z"/>
<path fill="#FFFFFF" opacity="1.000000" stroke="none" 
	d="
M370.660889,1193.324707 
	C362.023041,1188.942505 353.627502,1184.937256 345.343353,1180.713623 
	C336.039551,1175.969971 326.676056,1171.306519 317.639313,1166.087524 
	C310.191254,1161.786011 303.132507,1156.798218 295.990387,1151.982300 
	C285.894531,1145.174805 275.803528,1138.354370 265.874603,1131.308228 
	C262.498779,1128.912476 259.645874,1125.786743 256.505188,1123.050659 
	C254.151672,1121.000366 251.730698,1119.027100 249.320969,1117.042358 
	C242.226166,1111.198608 235.080963,1105.415405 228.035278,1099.513184 
	C222.972763,1095.272339 217.916306,1091.009888 213.081436,1086.515747 
	C208.387985,1082.153076 203.975525,1077.487549 199.448975,1072.945923 
	C194.423401,1067.903442 189.288864,1062.962158 184.430573,1057.762939 
	C181.186035,1054.290771 178.355347,1050.433228 175.312057,1046.770996 
	C173.510925,1044.603516 171.606079,1042.520874 169.835007,1040.329834 
	C163.531265,1032.530640 157.112823,1024.817139 151.028519,1016.849365 
	C145.306641,1009.356201 140.155807,1001.424683 134.383133,993.973145 
	C127.617325,985.239624 122.316666,975.605469 116.323341,966.425903 
	C109.767715,956.385010 103.697884,946.178040 98.206871,935.574646 
	C92.738113,925.014221 87.165863,914.498474 82.048218,903.767944 
	C77.429024,894.082458 73.068840,884.249146 69.133827,874.268372 
	C64.971725,863.711548 61.472900,852.894165 57.635090,842.208313 
	C54.609013,833.782593 51.474728,825.395630 48.478241,816.959595 
	C48.050823,815.756409 48.271957,814.337280 47.952801,813.078979 
	C45.349556,802.815125 42.407513,792.627991 40.124104,782.294739 
	C37.758156,771.588013 36.617176,760.585938 33.844173,750.000183 
	C30.416981,736.917236 30.247026,723.587952 28.814013,710.326782 
	C27.634386,699.410522 31.484322,690.594971 38.233311,683.069275 
	C41.291439,679.659241 46.700077,678.416931 50.913429,675.969238 
	C57.457058,672.167847 64.531784,674.190979 71.325569,674.109558 
	C94.987442,673.826050 118.674080,673.460999 142.309067,674.307068 
	C150.057327,674.584412 157.686859,678.423767 165.351105,680.700073 
	C169.180832,681.837463 173.042892,682.928223 176.756012,684.382935 
	C184.230560,687.311218 191.894791,689.429199 199.942123,688.932617 
	C210.578278,688.276428 220.225098,685.183350 229.156143,678.688171 
	C239.170349,671.405334 244.136353,661.805908 248.328552,650.524475 
	C253.400375,636.875977 252.317734,623.698914 250.064621,610.081787 
	C248.125183,598.360413 242.800919,588.167603 234.882401,579.736877 
	C229.063004,573.541077 222.010818,568.879211 213.650314,565.411011 
	C203.043442,561.010986 192.806000,561.580872 182.412277,563.228210 
	C176.105911,564.227722 170.142838,567.435669 164.051178,569.719788 
	C162.372437,570.349243 160.854950,571.611084 159.144379,571.917358 
	C152.659576,573.078247 146.797302,576.252258 139.825150,576.156433 
	C112.165352,575.776123 84.489159,576.373535 56.837101,575.774597 
	C48.437313,575.592651 41.245068,571.272583 35.818630,563.931763 
	C31.377850,557.924377 28.700302,551.542114 28.207251,544.380249 
	C27.838722,539.027161 28.504873,533.567749 29.071440,528.193726 
	C29.873102,520.589722 30.927183,513.009155 32.025043,505.440582 
	C32.905018,499.374084 33.990593,493.336884 35.022434,487.293091 
	C35.920784,482.031158 36.626053,476.720215 37.850178,471.533264 
	C40.428947,460.606232 43.312241,449.751343 46.027721,438.856171 
	C47.077637,434.643616 47.723778,430.308594 49.061306,426.194366 
	C51.433411,418.897766 54.274200,411.754883 56.760975,404.493652 
	C58.318211,399.946625 59.381660,395.226013 61.025803,390.714172 
	C64.917252,380.035370 68.740456,369.316284 73.131165,358.839752 
	C76.670845,350.393860 80.889511,342.222992 85.020981,334.038147 
	C87.545616,329.036621 90.564445,324.287048 93.199005,319.337891 
	C96.218384,313.665863 98.802017,307.748657 102.037216,302.207886 
	C106.621078,294.357361 111.669342,286.779327 116.436028,279.033722 
	C118.789833,275.208923 120.729988,271.114075 123.257446,267.414825 
	C128.320221,260.004730 133.776749,252.863708 138.840637,245.454346 
	C142.185684,240.559952 144.874084,235.207916 148.327423,230.398972 
	C151.605148,225.834625 155.485626,221.701843 159.119720,217.395020 
	C162.861557,212.960480 166.510864,208.440521 170.408234,204.146317 
	C175.823135,198.180038 181.505692,192.456955 186.933121,186.501678 
	C191.162445,181.861023 194.907684,176.752579 199.357544,172.346359 
	C204.634003,167.121643 210.509918,162.508301 215.989395,157.481079 
	C222.172699,151.808121 228.033218,145.774185 234.346085,140.254028 
	C241.678558,133.842300 249.310608,127.769577 256.886139,121.640518 
	C263.180298,116.548157 269.383240,111.307518 275.987366,106.643372 
	C283.225586,101.531410 290.946716,97.109131 298.328796,92.193161 
	C305.110748,87.676826 311.561310,82.647484 318.460815,78.328033 
	C323.601440,75.109734 329.269897,72.745758 334.622345,69.851608 
	C340.715698,66.556831 346.617462,62.895267 352.790680,59.764160 
	C358.779297,56.726696 364.958588,54.047142 371.140015,51.411903 
	C381.032043,47.194786 390.909454,42.919991 400.952271,39.086731 
	C410.816589,35.321594 420.820679,31.893793 430.874023,28.662048 
	C438.647583,26.163174 446.562012,24.080280 454.468781,22.023827 
	C462.700439,19.882883 471.281433,18.758064 479.199249,15.815449 
	C490.580566,11.585629 502.645142,12.424178 514.076477,9.745732 
	C527.017822,6.713492 539.994263,6.483354 553.053040,6.005891 
	C562.104980,5.674925 570.785034,8.452889 577.567505,13.597788 
	C586.822144,20.617966 592.966736,30.469740 592.985596,42.882175 
	C593.030396,72.380356 592.965210,101.878716 593.018799,131.376877 
	C593.037659,141.731735 583.392578,148.228745 575.658569,143.817764 
	C571.795715,141.614609 568.628418,137.817383 565.822571,134.214600 
	C560.253174,127.063408 555.022705,120.233971 546.577698,115.487854 
	C532.272888,107.448433 517.923767,109.332985 503.243103,111.997253 
	C491.841858,114.066368 480.439636,116.277596 469.215912,119.127151 
	C461.334747,121.128082 453.763855,124.340866 446.030121,126.940254 
	C444.051270,127.605377 441.920319,127.831848 439.963104,128.544968 
	C434.248718,130.627045 428.456360,132.566895 422.932343,135.084244 
	C412.395966,139.885742 402.004791,145.008591 391.591400,150.076218 
	C384.950562,153.307953 378.207977,156.384933 371.818695,160.065414 
	C364.119385,164.500519 356.762115,169.527115 349.224945,174.246780 
	C345.547913,176.549271 341.715179,178.610489 338.101990,181.005783 
	C332.985718,184.397491 327.938934,187.903763 322.987000,191.531067 
	C316.513611,196.272812 310.106384,201.109528 303.780518,206.046127 
	C300.489868,208.614105 297.465881,211.520950 294.267181,214.210190 
	C288.736755,218.859756 283.111084,223.397369 277.632629,228.106735 
	C275.083649,230.297913 272.765259,232.760605 270.378662,235.136734 
	C264.624634,240.865524 258.753632,246.485458 253.188889,252.393356 
	C247.354233,258.587830 241.694305,264.958740 236.187363,271.447174 
	C228.161987,280.902893 220.229630,290.443146 212.488800,300.132019 
	C209.368820,304.037140 206.911438,308.466003 204.060806,312.593170 
	C199.429642,319.298187 194.616730,325.880066 190.090347,332.654144 
	C187.593567,336.390778 185.477844,340.386963 183.272324,344.312225 
	C179.100601,351.736847 174.863007,359.128784 170.893066,366.660950 
	C168.050888,372.053375 165.681030,377.692596 162.951340,383.147064 
	C160.349228,388.346588 157.180008,393.291779 154.929230,398.630859 
	C151.329315,407.170135 148.361633,415.973602 144.975922,424.606232 
	C142.458572,431.024811 139.603363,437.311157 137.102295,443.735718 
	C136.117340,446.265808 135.657516,449.004364 135.006897,451.659851 
	C132.331055,462.581299 129.339554,473.439545 127.106293,484.451233 
	C124.987442,494.898834 123.696579,505.513306 121.967430,516.042236 
	C121.739510,517.430054 121.072556,518.745728 120.656754,519.955688 
	C121.089294,521.531616 122.159760,523.295349 121.898125,524.832275 
	C120.424149,533.490967 130.893158,541.096069 138.154099,541.054688 
	C146.075333,541.009521 152.813431,538.125671 159.679230,534.399109 
	C164.181046,531.955688 169.819931,531.398621 175.038406,530.531494 
	C183.510986,529.123718 192.172089,526.697083 200.542389,527.361450 
	C211.505264,528.231628 222.662430,530.605225 232.970840,534.406921 
	C240.066330,537.023743 246.097198,542.874390 252.171066,547.812134 
	C257.738464,552.338074 262.875183,557.431641 267.897461,562.572266 
	C270.009216,564.733765 271.654633,567.509644 272.962982,570.266724 
	C276.466583,577.650024 279.656433,585.181763 283.001587,592.640808 
	C289.575134,607.298401 287.994324,622.884888 287.842255,638.216614 
	C287.775330,644.964600 287.069427,652.090088 284.771698,658.353821 
	C279.692566,672.199768 273.511322,685.754456 262.817719,696.354797 
	C258.216522,700.915833 252.047791,703.885620 247.390060,708.402161 
	C240.363510,715.215759 231.403702,717.051453 222.723846,720.159973 
	C210.117584,724.674561 197.445557,723.550720 184.816391,721.854797 
	C176.449326,720.731140 168.188553,718.347107 160.093002,715.840027 
	C154.913864,714.236145 150.177109,711.250977 145.142914,709.119080 
	C139.639343,706.788513 131.171616,710.657349 126.741127,715.207336 
	C121.538208,720.550537 119.344498,726.571350 120.132668,733.435669 
	C121.292923,743.540466 123.077026,753.597412 125.103119,763.571533 
	C126.665794,771.264465 128.750015,778.878601 131.063797,786.385559 
	C134.836975,798.627502 138.954315,810.764099 142.991623,822.923523 
	C144.804489,828.383423 146.404785,833.957275 148.753357,839.186646 
	C153.168747,849.018127 157.899490,858.717468 162.789322,868.324036 
	C168.901840,880.332520 175.292618,892.199646 181.592590,904.112305 
	C184.362823,909.350525 186.877182,914.764465 190.101761,919.711426 
	C193.792923,925.374146 198.208130,930.560120 202.187790,936.041077 
	C205.214661,940.209900 207.916641,944.617859 211.004959,948.738159 
	C216.283051,955.779907 221.789917,962.649719 227.121613,969.652039 
	C229.756500,973.112488 232.010132,976.879700 234.803406,980.199097 
	C238.570496,984.675781 242.692642,988.853516 246.660110,993.161621 
	C250.495148,997.325867 254.200439,1001.619446 258.197174,1005.622192 
	C261.974152,1009.404785 266.132080,1012.803955 269.985077,1016.514465 
	C275.117767,1021.457336 279.982758,1026.684448 285.220551,1031.509644 
	C288.923645,1034.921021 293.107788,1037.804199 296.981018,1041.038330 
	C302.032959,1045.256714 306.988739,1049.590210 311.989044,1053.870361 
	C312.545471,1054.346680 313.114807,1054.808838 313.691498,1055.260498 
	C318.600830,1059.106323 323.388763,1063.123047 328.464142,1066.735962 
	C332.530151,1069.630371 336.987885,1071.968140 341.197906,1074.668091 
	C348.858337,1079.580688 356.309967,1084.840088 364.142059,1089.457031 
	C370.205933,1093.031738 376.727631,1095.826538 383.026215,1099.006836 
	C388.017578,1101.527100 392.984131,1104.096558 397.950928,1106.665039 
	C399.409698,1107.419434 400.766876,1108.407104 402.280853,1109.011963 
	C413.885590,1113.647949 424.560394,1120.460693 437.019470,1123.167358 
	C442.593750,1124.378174 447.830963,1127.092773 453.270264,1128.983765 
	C462.028717,1132.028809 470.770233,1135.145752 479.634644,1137.853149 
	C483.933014,1139.166016 488.575806,1139.322021 492.919586,1140.520508 
	C503.170990,1143.349121 513.523560,1144.983276 524.190308,1145.062500 
	C535.611084,1145.147217 545.321350,1141.286987 554.306763,1134.375610 
	C560.045410,1129.961792 564.007996,1124.353149 567.846069,1118.494507 
	C573.402954,1110.012085 579.028259,1109.051636 587.288879,1112.378540 
	C590.101440,1113.511475 592.700073,1119.008423 592.754150,1122.551636 
	C593.191528,1151.209961 593.280212,1179.882080 592.838074,1208.540405 
	C592.694763,1217.833008 587.930298,1225.385010 580.850342,1231.873779 
	C568.229370,1243.441284 553.562500,1244.423462 537.863892,1242.033325 
	C524.409241,1239.984985 510.902588,1238.244629 497.497314,1235.916748 
	C488.476898,1234.350586 479.557709,1232.141602 470.659637,1229.950439 
	C463.968384,1228.302612 457.332794,1226.384033 450.760956,1224.305908 
	C439.166016,1220.639526 427.565735,1216.965210 416.105377,1212.905640 
	C406.450623,1209.485596 396.918335,1205.687744 387.472839,1201.721313 
	C381.825714,1199.350098 376.450073,1196.332397 370.660889,1193.324707 
z"/>
<path fill="#FFFFFF" opacity="1.000000" stroke="none" 
	d="
M680.000366,546.043030 
	C680.840210,545.119873 682.013428,544.779907 682.382935,544.039062 
	C687.323975,534.133545 692.085266,524.138306 697.039551,514.239624 
	C699.299377,509.724518 701.622986,505.200317 704.389343,500.990173 
	C707.783325,495.824738 705.506042,488.291931 702.916626,482.656342 
	C698.745667,473.578949 690.820801,473.939392 683.657104,471.998077 
	C678.750793,470.668488 678.105042,465.748444 678.054077,460.092682 
	C678.011902,455.415192 681.059692,453.979523 685.291626,453.983521 
	C717.456787,454.013763 749.622070,453.969116 781.787109,454.026550 
	C788.114319,454.037842 789.694519,456.836090 788.634033,463.034912 
	C787.504761,469.636383 783.787170,471.070557 777.674072,472.337708 
	C769.160583,474.102448 760.459229,476.617706 753.925598,483.451385 
	C749.076355,488.523254 743.004639,492.562469 738.790955,498.067139 
	C734.665894,503.455902 732.212830,510.122284 729.008179,516.218567 
	C725.344116,523.188843 721.699890,530.170044 717.974792,537.107605 
	C713.871033,544.750427 709.757812,552.389954 705.506836,559.951172 
	C703.121582,564.193726 700.365173,568.226501 697.942505,572.449219 
	C696.766113,574.499817 696.128662,576.857117 694.975647,578.924011 
	C691.682617,584.826782 688.255188,590.654602 684.871033,596.506409 
	C683.335693,599.161377 681.777161,601.802979 680.230469,604.451477 
	C677.255554,609.545654 680.822388,613.237671 682.816406,617.395081 
	C685.434509,622.853699 687.465515,628.593384 690.070557,634.059021 
	C692.970886,640.144104 696.362671,645.993835 699.300964,652.062012 
	C702.412842,658.488342 705.100098,665.120972 708.238037,671.533752 
	C711.119812,677.423157 714.529358,683.055298 717.387146,688.955383 
	C720.531006,695.445923 723.311279,702.112610 726.248474,708.703186 
	C730.019165,717.164001 733.696411,725.668518 737.628723,734.053528 
	C738.510742,735.934326 740.283203,737.397461 741.680481,739.095093 
	C746.674561,736.211792 746.787354,730.574158 749.435425,726.625305 
	C753.652222,720.337036 753.994629,712.720947 758.436707,706.405823 
	C762.639587,700.430603 764.038574,692.538025 767.052673,685.656067 
	C769.994751,678.938782 773.456299,672.450378 776.594177,665.816223 
	C777.062927,664.825439 776.768372,663.474915 777.233154,662.480713 
	C780.421692,655.660156 783.766357,648.912476 786.949219,642.089294 
	C787.821167,640.220276 788.222229,638.137512 788.993896,636.214783 
	C793.402100,625.229919 797.567810,614.134766 802.384888,603.330811 
	C806.446472,594.221497 811.321228,585.476746 815.736938,576.521667 
	C816.431152,575.113708 816.455139,573.389954 817.035461,571.908813 
	C819.726074,565.041565 822.364929,558.148743 825.281250,551.376526 
	C830.027893,540.354309 835.472290,529.605286 839.684509,518.388733 
	C843.139465,509.188324 845.725220,499.605927 843.182434,489.427094 
	C841.737183,483.641541 837.410706,480.640839 832.939148,478.141876 
	C825.861267,474.186340 818.185059,471.786346 809.841248,471.820099 
	C808.559143,471.825317 807.243958,469.481262 805.996765,468.173492 
	C805.685669,467.847351 805.512756,467.343964 805.389465,466.891205 
	C803.010498,458.156342 806.077759,454.000000 814.886108,454.000000 
	C852.717712,454.000000 890.549438,453.961670 928.380737,454.063965 
	C931.857910,454.073364 935.332703,454.980286 939.000000,455.497437 
	C939.000000,458.758728 939.008972,461.243927 938.997986,463.729095 
	C938.978271,468.217560 935.719971,471.319794 931.229187,472.063477 
	C922.125549,473.571014 914.356262,477.902679 906.921021,483.359314 
	C899.349731,488.915802 894.596375,496.574768 889.590271,504.062500 
	C886.837830,508.179352 885.195374,513.021790 882.815918,517.408752 
	C879.951843,522.689270 876.681885,527.752258 873.892151,533.069214 
	C872.369873,535.970581 871.712036,539.318726 870.252136,542.260864 
	C867.052368,548.709534 863.413025,554.942627 860.286072,561.424255 
	C857.308105,567.597168 854.939758,574.064270 851.959106,580.235718 
	C849.019897,586.321167 845.629639,592.187866 842.494385,598.180420 
	C842.138306,598.861084 842.258301,599.776062 841.974854,600.512024 
	C839.858887,606.005554 838.783569,612.339966 835.291809,616.759277 
	C830.205750,623.196411 828.846680,631.078247 824.830017,637.855164 
	C821.188354,643.999390 819.055664,651.018616 815.961060,657.510681 
	C810.928467,668.068604 805.525757,678.450745 800.533997,689.027222 
	C797.940308,694.522888 796.158447,700.404480 793.519714,705.875305 
	C791.088745,710.915344 787.778809,715.528076 785.283630,720.541809 
	C783.670349,723.783386 783.087463,727.526245 781.585632,730.837097 
	C778.078125,738.569641 774.179993,746.124939 770.664734,753.854187 
	C768.411499,758.808472 766.731567,764.023071 764.486084,768.981262 
	C760.778564,777.167664 756.722168,785.195862 752.996277,793.374268 
	C748.887756,802.392456 745.049500,811.533569 740.962341,820.561768 
	C739.382324,824.051758 737.559448,827.448486 735.597900,830.739136 
	C734.982056,831.772095 733.604980,832.889709 732.486755,832.992310 
	C727.448242,833.454468 722.320068,834.082947 717.349304,833.528992 
	C715.563843,833.330017 713.663818,830.199890 712.625732,828.021545 
	C709.871277,822.241821 707.785950,816.142029 705.006531,810.375793 
	C702.144470,804.438049 698.570251,798.844421 695.690002,792.914429 
	C692.918335,787.208069 690.803955,781.184570 688.087769,775.448547 
	C685.682983,770.369995 682.640015,765.592773 680.253174,760.506775 
	C676.984131,753.541138 674.119141,746.387085 670.984863,739.356628 
	C668.840393,734.546265 666.557983,729.796631 664.283203,725.045654 
	C663.501221,723.412415 662.396973,721.922546 661.713501,720.255066 
	C659.295837,714.356934 656.060242,708.860535 653.582581,702.945923 
	C649.976135,694.336670 645.287842,686.089111 641.701233,677.374634 
	C641.435547,676.729248 640.588074,676.323364 640.457031,676.205872 
	C636.383240,683.312134 632.273071,690.151794 628.494568,697.170044 
	C625.029907,703.605286 622.032288,710.290527 618.634033,716.763367 
	C613.252747,727.013611 607.676147,737.161133 602.249634,747.387939 
	C600.079529,751.477661 598.283447,755.775391 595.964905,759.774231 
	C593.282288,764.401001 589.882935,768.629272 587.392883,773.346313 
	C584.276855,779.248840 581.948853,785.562744 578.951538,791.533813 
	C575.628662,798.153381 571.829529,804.532410 568.440552,811.120483 
	C566.326660,815.229919 564.528503,819.506592 562.692444,823.752991 
	C557.758606,835.164001 553.128052,839.234192 540.208374,833.963928 
	C539.492676,833.672058 538.577271,833.219727 538.303162,832.599670 
	C536.362244,828.209839 534.709900,823.689148 532.689636,819.338379 
	C529.046204,811.492004 525.180908,803.748962 521.463989,795.936340 
	C518.865112,790.473877 516.495361,784.898682 513.777649,779.497437 
	C510.148285,772.284302 506.266754,765.198364 502.521851,758.043030 
	C500.677673,754.519226 498.778961,751.016602 497.115662,747.407227 
	C494.639069,742.033142 492.595703,736.446777 489.903992,731.188232 
	C487.629852,726.745361 484.492310,722.750366 482.112854,718.353760 
	C479.824829,714.125977 478.037689,709.628479 475.996765,705.265259 
	C473.699127,700.353394 471.351929,695.464722 469.048309,690.555664 
	C466.682953,685.515076 464.460693,680.403564 461.965912,675.428406 
	C458.424652,668.366394 454.612061,661.440674 451.060883,654.383484 
	C446.951263,646.216492 442.883240,638.024475 439.008636,629.744385 
	C434.212921,619.495789 430.219604,608.821411 424.754578,598.954102 
	C421.169830,592.481812 417.367615,586.259521 414.523193,579.334290 
	C411.016846,570.797424 406.270874,562.765503 401.988098,554.553162 
	C399.385376,549.562256 396.535034,544.698608 393.998718,539.675415 
	C391.483643,534.694397 389.366760,529.510742 386.812531,524.551331 
	C383.923126,518.940918 380.738861,513.482483 377.687805,507.955200 
	C376.479279,505.765808 375.448639,503.457397 374.050903,501.397278 
	C370.406067,496.025299 367.245453,490.098724 362.666992,485.655334 
	C358.757202,481.860870 353.399231,479.167175 348.226105,477.162689 
	C341.400146,474.517700 334.096405,473.126862 327.074951,470.948914 
	C325.541656,470.473328 323.524109,469.203583 323.107147,467.869110 
	C320.515656,459.575531 321.075836,453.816467 331.558624,453.875153 
	C381.388123,454.154327 431.220184,453.957458 481.050690,454.119781 
	C483.670532,454.128296 488.184387,455.445496 488.513397,456.900391 
	C489.239502,460.111237 488.063751,463.846497 487.282593,467.281036 
	C486.210205,471.996338 482.417786,471.718597 478.547638,472.126831 
	C470.492828,472.976593 462.576874,475.375244 456.349548,480.531189 
	C451.428345,484.605713 449.131714,490.248444 450.572540,497.509003 
	C452.136108,505.388092 456.396820,511.704346 459.815521,518.569946 
	C461.020264,520.989502 461.657135,523.685547 462.666809,526.209900 
	C464.742889,531.400391 466.637115,536.686829 469.089874,541.696960 
	C471.506592,546.633423 474.583252,551.242981 477.235748,556.070007 
	C478.049072,557.550049 478.298553,559.329163 479.011078,560.877014 
	C483.301208,570.197083 487.675354,579.478577 491.970184,588.796448 
	C494.034912,593.275940 495.460022,598.147095 498.100891,602.243896 
	C503.608154,610.787354 506.751129,620.350769 510.975128,629.446411 
	C513.691650,635.296082 517.017639,640.859558 519.937805,646.618530 
	C524.346130,655.312073 528.772583,664.001160 532.931335,672.814758 
	C535.523376,678.308044 537.444397,684.116943 540.016479,689.620667 
	C542.806335,695.590393 546.230835,701.266113 548.961914,707.259888 
	C552.216919,714.403442 554.823364,721.843018 558.096497,728.977417 
	C560.839539,734.956482 564.093384,740.704956 567.244263,746.488464 
	C567.632568,747.201294 568.788818,747.886414 569.573181,747.868896 
	C570.198303,747.854858 570.998535,746.852295 571.378601,746.112671 
	C574.101318,740.813904 576.630859,735.414124 579.421814,730.152527 
	C584.843628,719.931641 590.523743,709.846436 595.856323,699.580078 
	C600.421204,690.791748 604.443542,681.718384 609.115723,672.990540 
	C611.405701,668.712769 614.664795,664.959045 617.395813,660.907776 
	C617.996338,660.017029 618.145447,658.835571 618.625427,657.847656 
	C620.386475,654.222900 622.629944,650.759827 623.833130,646.963745 
	C624.570435,644.637817 624.313660,641.616028 623.490051,639.260986 
	C622.076233,635.218262 619.970764,631.399719 617.970154,627.584290 
	C615.501587,622.876404 612.840759,618.269287 610.269714,613.614990 
	C609.880859,612.911072 609.510376,612.195740 609.160645,611.471619 
	C604.779480,602.399719 600.325745,593.361633 596.061218,584.235229 
	C594.100586,580.039307 592.770752,575.540527 590.706055,571.403015 
	C585.731140,561.433533 580.417664,551.633240 575.404175,541.682373 
	C573.916199,538.729004 573.165344,535.409241 571.737061,532.419617 
	C568.960144,526.607300 565.947144,520.907471 563.023560,515.165405 
	C561.355713,511.889587 559.712097,508.600464 557.985229,505.355804 
	C554.669922,499.126465 552.062744,492.313385 547.713806,486.907410 
	C544.321594,482.690674 539.064026,479.539459 534.039246,477.188873 
	C528.599365,474.644012 522.466003,473.584442 516.639465,471.862213 
	C513.309998,470.878021 509.801819,464.359741 511.167450,460.004517 
	C512.204102,456.698517 514.273010,453.879852 518.991455,453.898590 
	C562.322083,454.070801 605.653931,454.055969 648.984802,453.914734 
	C653.397095,453.900360 654.843811,455.857483 654.989136,459.685669 
	C655.052307,461.349884 655.154785,463.035980 654.969055,464.681641 
	C654.489197,468.932404 652.417969,471.931152 647.796814,471.957764 
	C639.927490,472.003113 633.410645,475.972351 628.254272,480.804535 
	C624.041382,484.752594 624.223816,491.254791 625.689636,497.339661 
	C628.058044,507.171204 634.224243,515.191284 637.795105,524.417725 
	C639.858948,529.750305 641.682617,535.210938 644.203857,540.323181 
	C647.970093,547.959961 652.410217,555.262451 656.256165,562.862732 
	C658.192261,566.688904 659.388367,570.883850 661.047485,574.858521 
	C661.691711,576.401978 662.689880,577.797607 663.673096,579.516296 
	C669.306274,568.076172 674.633179,557.258057 680.000366,546.043030 
z"/>
</svg>